<?xml version="1.0" ?><svg enable-background="new 0 0 116.3789 194.4198" id="facebook" version="1.1" viewBox="0 0 116.3789 194.4198" xml:space="preserve" xmlns="http://www.w3.org/2000/svg" xmlns:xlink="http://www.w3.org/1999/xlink"><path d="M97.3535,34.7538h19.0254V0.0214H81.8066c-2.8828-0.1211-38.0391-0.793-47.1523,33.9551  c-0.1328,0.3652-3.043,8.627-3.043,27.9316L0,62.0018v36.4297l31.6523-0.0938v96.082H80v-96h32V61.8964H80V50.4042  C80,43.2636,83.0098,34.7538,97.3535,34.7538z" fill="#535353"/><path d="M104,69.8964v20.5234H72v96H39.6523V90.3143L8,90.4081V69.9784l31.7344-0.0938l-0.082-4.0684  c-0.4141-20.4473,2.5-29.0488,2.6309-29.459C50.1465,6.4276,80.1738,7.9354,81.4629,8.0136l26.916,0.0078v18.7324H97.3535  C78.6602,26.7538,72,38.9706,72,50.4042v19.4922H104z" fill="#D8D8D8"/></svg>