<?xml version="1.0" standalone="no"?>
<!DOCTYPE svg PUBLIC "-//W3C//DTD SVG 20010904//EN"
 "http://www.w3.org/TR/2001/REC-SVG-20010904/DTD/svg10.dtd">
<svg version="1.0" xmlns="http://www.w3.org/2000/svg"
 width="1280.000000pt" height="1280.000000pt" viewBox="0 0 1280.000000 1280.000000"
 preserveAspectRatio="xMidYMid meet">
<metadata>
Created by potrace 1.15, written by Peter Selinger 2001-2017
</metadata>
<g transform="translate(0.000000,1280.000000) scale(0.100000,-0.100000)"
fill="#000000" stroke="none">
<path d="M7020 11834 c-697 -27 -1469 -155 -2010 -334 -298 -99 -722 -280
-1081 -461 -436 -221 -606 -336 -834 -564 -202 -201 -382 -449 -510 -700 -67
-132 -155 -402 -229 -705 -84 -340 -96 -526 -60 -885 21 -211 66 -449 120
-635 13 -47 27 -100 30 -119 7 -42 75 -240 121 -351 85 -207 208 -410 351
-580 307 -367 614 -504 1127 -503 391 1 719 99 957 288 148 116 209 243 253
527 23 154 67 265 152 388 182 261 476 468 838 588 258 86 475 117 774 109
234 -6 325 -21 529 -89 159 -53 271 -119 377 -223 123 -121 225 -292 225 -376
-2 -170 -136 -421 -313 -585 -143 -132 -391 -277 -1227 -714 -1069 -560 -1209
-641 -1580 -920 -364 -274 -588 -491 -799 -775 -127 -170 -192 -273 -256 -409
-113 -236 -150 -396 -142 -611 8 -240 81 -476 204 -662 95 -144 278 -300 462
-393 296 -148 668 -189 985 -109 218 55 452 186 548 307 54 67 84 154 114 332
32 187 57 291 85 345 57 109 182 235 396 397 336 255 600 403 1268 713 610
283 899 432 1185 612 168 106 447 305 560 399 380 317 765 841 1060 1439 173
351 299 689 394 1057 192 739 214 1310 71 1815 -102 361 -258 665 -491 958
-116 147 -401 429 -544 539 -187 145 -439 305 -625 399 -376 188 -974 366
-1472 436 -307 44 -720 66 -1013 55z"/>
<path d="M4781 1535 c-118 -22 -236 -64 -385 -138 -121 -60 -148 -78 -211
-141 -51 -51 -82 -93 -105 -141 -30 -63 -33 -80 -38 -186 -4 -91 -1 -127 12
-165 9 -26 16 -59 16 -73 0 -44 55 -145 108 -198 59 -59 158 -119 342 -207
176 -83 352 -152 470 -184 129 -34 338 -36 477 -4 276 65 535 228 616 389 41
81 57 160 57 285 0 211 -50 338 -183 472 -115 115 -207 160 -464 226 -270 70
-552 96 -712 65z"/>
</g>
</svg>
