<?xml version="1.0" ?><svg enable-background="new 0 0 208 208" id="whatsup" version="1.1" viewBox="0 0 208 208" xml:space="preserve" xmlns="http://www.w3.org/2000/svg" xmlns:xlink="http://www.w3.org/1999/xlink"><g><path d="M104,0C46.6523,0,0,46.6523,0,104c0,19.5625,5.4375,38.5547,15.7461,55.0469   c-4.1055,14.3945-11.5273,41.6172-11.6055,41.9023c-0.3828,1.4062,0.0273,2.9102,1.0781,3.9258   c1.0508,1.0117,2.5703,1.3711,3.957,0.9492l41.2227-12.6836C66.5469,202.8672,85.0391,208,104,208c57.3477,0,104-46.6523,104-104   S161.3477,0,104,0z" fill="#535353"/><path d="M104,200c-18.0742,0-35.6836-5.0508-50.9258-14.6055c-0.6445-0.4023-1.3828-0.6094-2.125-0.6094   c-0.3945,0-0.793,0.0586-1.1758,0.1758l-35.9961,11.0781c2.6445-9.6523,7.3945-26.918,10.1523-36.5195   c0.3202-1.1133,0.1406-2.3125-0.4883-3.2852C13.3398,140.6914,8,122.6289,8,104C8,51.0664,51.0664,8,104,8s96,43.0664,96,96   S156.9336,200,104,200z" fill="#D8D8D8"/><path d="M171.9414,128.5039c-7.3828-4.1016-13.6719-8.2109-18.2617-11.2109   c-3.5039-2.2891-6.0352-3.9414-7.8906-4.8711c-5.1875-2.5898-9.1211-0.7578-10.6172,0.75c-0.1875,0.1875-0.3555,0.3906-0.5,0.6094   c-5.3867,8.082-12.4258,15.8164-14.4844,16.2305c-2.3789-0.3711-13.5195-6.7031-24.5938-15.9258   c-11.3047-9.4219-18.4141-18.4414-19.4609-24.582C83.3867,82.0391,86,77.3438,86,72c0-5.5078-12.8477-28.5039-15.1719-30.8281   c-2.332-2.3281-7.582-2.6914-15.6133-1.0938c-0.7734,0.1562-1.4844,0.5352-2.043,1.0938   C52.1992,42.1445,29.457,65.332,40.2656,93.4375c11.8633,30.8438,42.3164,66.6953,81.1406,72.5195   c4.4102,0.6602,8.5469,0.9883,12.4219,0.9883c22.8398,0,36.3203-11.4922,40.1172-34.2891   C174.2227,130.9883,173.4219,129.3242,171.9414,128.5039z" fill="#535353"/><path d="M122.5938,158.043c-41.0547-6.1562-66.918-46.832-74.8594-67.4805   c-7.8789-20.4805,6.6523-38.7383,10.3008-42.8672c2.9688-0.5039,6.0898-0.7148,7.3945-0.5117C68.1523,50.9727,77.5859,68.793,78,72   c0,2.1016-0.6836,5.0234-8.8281,13.1719C68.4219,85.9219,68,86.9375,68,88c0,20.9453,44.1758,50,52,50   c6.8047,0,15.6758-11.4375,20.7266-18.8867c0.293,0.0117,0.7852,0.1133,1.4844,0.4648c1.4414,0.7227,3.9375,2.3516,7.0938,4.4141   c4.168,2.7227,9.7031,6.3398,16.2383,10.0859C162.5742,148.3594,154.2812,162.8047,122.5938,158.043z" fill="#FFFFFF"/></g></svg>